<?xml version="1.0" encoding="UTF-8" standalone="no"?>

<svg
   xmlns:svg="http://www.w3.org/2000/svg"
   xmlns="http://www.w3.org/2000/svg"
   xmlns:xlink="http://www.w3.org/1999/xlink"
   version="1.0"
   viewBox="0 0 50 57"
   id="svgroot">

<defs>
  <filter id="shadow">
    <feDropShadow dx="0.6" dy="0.6" stdDeviation="0.5" flood-opacity="0.5"/>
  </filter>

  <filter id="lighten">
    <feComponentTransfer>
      <feFuncR type="linear" slope="1.2" />
      <feFuncG type="linear" slope="1.2" />
      <feFuncB type="linear" slope="1.2" />
    </feComponentTransfer>
  </filter>

  <path id="hanger"
        d="M 25,12
           l -20,15
           l 40,0
           l -20,-15
           l 0,-3
           a 2.5,2.5 0 1 0 -2.5,-2.5
           "
        stroke-width="2"
        stroke-linecap="round"
        stroke-linejoin="round"
        stroke="#d689e0"
        fill="none"
        filter="url(#shadow)" />
</defs>

<rect id="border" stroke="#00000033" stroke-width="0.1" fill="none" x="0" y="0" width="50" height="57" />

<g id="poiu">

  <g id="hanger1" filter="url(#lighten)">
    <use x="4" y="2" href="#hanger" filter="url(#lighten)" />
  </g>
  <g id="hanger2">
    <use x="0" y="0" href="#hanger" filter="url(#lighten)" />
  </g>
  <g id="hanger3">
    <use x="-4" y="-2" href="#hanger" />
  </g>
</g>

<g filter="url(#lighten)">
  <g
     aria-label="poiu"
     id="caption"
     transform="translate(25,48)"
     fill="#d464e3"
     filter="url(#shadow)">
    <path
       d="m -15.628505,-12.259 q 1.564,0 2.829,0.805 1.265,0.782 1.978,2.208 0.736,1.426 0.736,3.22 0,1.794 -0.736,3.22 -0.713,1.403 -1.978,2.208 -1.265,0.805 -2.783,0.805 -1.196,0 -2.231,-0.529 -1.035,-0.529 -1.679,-1.288 v 5.106 q 0,0.46 -0.322,0.782 -0.299,0.322 -0.782,0.322 -0.46,0 -0.782,-0.322 -0.299,-0.299 -0.299,-0.782 v -14.467 q 0,-0.483 0.299,-0.805 0.299,-0.322 0.782,-0.322 0.483,0 0.782,0.322 0.322,0.322 0.322,0.805 v 0.667 q 0.552,-0.805 1.61,-1.38 1.058,-0.575 2.254,-0.575 z m -0.253,10.442 q 1.058,0 1.909,-0.552 0.851,-0.552 1.311,-1.495 0.483,-0.966 0.483,-2.162 0,-1.196 -0.483,-2.139 -0.46,-0.966 -1.311,-1.518 -0.851,-0.552 -1.909,-0.552 -1.081,0 -1.932,0.552 -0.851,0.529 -1.334,1.495 -0.46,0.966 -0.46,2.162 0,1.196 0.46,2.162 0.483,0.966 1.334,1.518 0.851,0.529 1.932,0.529 z"
       id="letter-p" />
    <path
       d="m 3.8525025,-6.026 q 0,1.794 -0.805,3.22 -0.805,1.426 -2.20800004,2.231 -1.38,0.805 -3.05899996,0.805 -1.679,0 -3.082,-0.805 -1.38,-0.805 -2.185,-2.231 -0.805,-1.426 -0.805,-3.22 0,-1.794 0.805,-3.243 0.805,-1.449 2.185,-2.254 1.403,-0.805 3.082,-0.805 1.67899996,0 3.05899996,0.805 1.40300004,0.805 2.20800004,2.254 0.805,1.449 0.805,3.243 z m -2.185,0 q 0,-1.242 -0.529,-2.208 -0.50600004,-0.989 -1.40300004,-1.518 -0.87399996,-0.552 -1.95499996,-0.552 -1.081,0 -1.978,0.552 -0.874,0.529 -1.403,1.518 -0.506,0.966 -0.506,2.208 0,1.219 0.506,2.185 0.529,0.966 1.403,1.518 0.897,0.529 1.978,0.529 1.081,0 1.95499996,-0.529 0.897,-0.552 1.40300004,-1.518 0.529,-0.966 0.529,-2.185 z"
       id="letter-o" />
    <path
       d="m 8.4525232,-1.104 q 0,0.46 -0.322,0.782 -0.299,0.322 -0.782,0.322 -0.46,0 -0.782,-0.322 -0.299,-0.322 -0.299,-0.782 v -9.959 q 0,-0.46 0.299,-0.782 0.322,-0.322 0.782,-0.322 0.483,0 0.782,0.322 0.322,0.322 0.322,0.782 z m -1.104,-12.581 q -0.667,0 -0.966,-0.23 -0.276,-0.253 -0.276,-0.782 v -0.368 q 0,-0.552 0.299,-0.782 0.322,-0.23 0.966,-0.23 0.644,0 0.92,0.253 0.299,0.23 0.299,0.759 v 0.368 q 0,0.552 -0.299,0.782 -0.299,0.23 -0.943,0.23 z"
       id="letter-i" />
    <path
       d="m 20.573509,-12.052 q 0.483,0 0.782,0.322 0.322,0.322 0.322,0.782 v 6.118 q 0,2.392 -1.334,3.726 -1.311,1.311 -3.726,1.311 -2.392,0 -3.703,-1.311 -1.311,-1.334 -1.311,-3.726 v -6.118 q 0,-0.46 0.299,-0.782 0.322,-0.322 0.782,-0.322 0.483,0 0.782,0.322 0.322,0.322 0.322,0.782 v 6.118 q 0,3.013 2.829,3.013 1.403,0 2.139,-0.759 0.736,-0.759 0.736,-2.254 v -6.118 q 0,-0.46 0.299,-0.782 0.322,-0.322 0.782,-0.322 z"
       id="letter-u" />
  </g>
</g>
</svg>

